<?xml version="1.0" ?><svg id="Outline" viewBox="0 0 64 64" xmlns="http://www.w3.org/2000/svg"><g data-name="Outline" id="Outline-2"><path d="M51,26a4,4,0,1,0,4,4A4,4,0,0,0,51,26Zm0,6a2,2,0,1,1,2-2A2,2,0,0,1,51,32Z"/><path d="M35.882,30A3.109,3.109,0,0,0,41.2,32.193L53.121,20.121a3,3,0,0,0,0-4.242,3.073,3.073,0,0,0-4.24,0L36.806,27.8A3.09,3.09,0,0,0,35.882,30Zm2.329-.779L50.289,17.3A1,1,0,1,1,51.7,18.712L39.78,30.788a1.109,1.109,0,1,1-1.569-1.567Z"/><path d="M39,22a4,4,0,1,0-4-4A4,4,0,0,0,39,22Zm0-6a2,2,0,1,1-2,2A2,2,0,0,1,39,16Z"/><path d="M59.481,42.2A8.425,8.425,0,0,0,53.272,40c-.775,0-1.537-.042-2.291-.11A16.992,16.992,0,1,0,29.427,17.169a1.022,1.022,0,0,0-1.072-.3A59.724,59.724,0,0,1,28,7.994,1,1,0,0,0,27,7H5A1,1,0,0,0,4,8V37.7A10.554,10.554,0,0,0,3.3,49H3a1,1,0,0,0-1,1v4a3,3,0,0,0,3,3H59a3,3,0,0,0,3-3V50C61.976,46.537,61.165,43.868,59.481,42.2Zm-1.415,1.413A8.038,8.038,0,0,1,60,49H45.5a14.113,14.113,0,0,1,4.245-7.236A27.323,27.323,0,0,0,53.272,42,6.444,6.444,0,0,1,58.066,43.617ZM19.041,49A18.406,18.406,0,0,0,6,37.19V23.2c.973-3.469,5.758-6.506,12-8.074-.029,15.433,10.907,29.4,25.658,32.985-.078.291-.144.588-.209.885ZM45,9a14.986,14.986,0,0,1,1.091,29.934,23.531,23.531,0,0,1-2.7-1,.994.994,0,0,0-1.6-1.138l-.226.227a24.155,24.155,0,0,1-4.246-2.984.977.977,0,0,0-1.4-1.327,25.8,25.8,0,0,1-2.442-2.9.991.991,0,0,0,.283-1.293,1,1,0,0,0-1.366-.367l-.018.011a28.128,28.128,0,0,1-2.2-4.4l.216-.125a.994.994,0,0,0-.213-1.818A14.892,14.892,0,0,1,45,9ZM28.82,18.812c-.026.083-.045.168-.07.251-.016-.076-.029-.154-.045-.23Zm-5.006.868c.122.021,2.773-.488,2.918-.5a32.562,32.562,0,0,0,.987,3.685l-2.61,1.506a1,1,0,0,0,1,1.733l2.313-1.335a30.01,30.01,0,0,0,2.21,4.4l-2.523,1.456a1,1,0,0,0,1,1.733l2.632-1.519a27.722,27.722,0,0,0,2.735,3.278L32.3,36.293a1,1,0,0,0,1.414,1.414l2.215-2.215a26.116,26.116,0,0,0,4.162,3.01L38.3,40.293a1,1,0,0,0,1.414,1.414l2.235-2.234a25.721,25.721,0,0,0,5.387,1.865,15.95,15.95,0,0,0-3.026,4.873C30.2,42.88,19.77,29.434,20,14.693a38.729,38.729,0,0,1,6.063-.663q.09,1.62.32,3.182l-2.743.483a1,1,0,0,0,.172,1.985ZM26,12.031a41.585,41.585,0,0,0-6,.609V9h6v3.031ZM18,9v4.049c-5.252,1.224-9.56,3.443-12,6.228V9ZM5.462,39.123A16.378,16.378,0,0,1,16.917,49H5.572C3.514,45.467,3.476,42.3,5.462,39.123ZM59,55H5a1,1,0,0,1-1-1V51H60v3A1,1,0,0,1,59,55Z"/><path d="M16.747,27.534l-1.608-.473-.949-1.385a1.815,1.815,0,0,0-2.887,0l-.949,1.385-1.609.473a1.763,1.763,0,0,0-.891,2.746l1.023,1.328-.046,1.678a1.761,1.761,0,0,0,2.336,1.7l1.58-.562,1.579.562a1.762,1.762,0,0,0,2.336-1.7l-.046-1.678,1.024-1.329A1.762,1.762,0,0,0,16.747,27.534Zm-1.77,2.926a1.756,1.756,0,0,0-.362,1.115l.038,1.4-1.321-.47a1.746,1.746,0,0,0-1.172,0l-1.32.47.038-1.4a1.756,1.756,0,0,0-.362-1.117L9.662,29.35l1.343-.4a1.746,1.746,0,0,0,.949-.689l.793-1.157.791,1.155a1.745,1.745,0,0,0,.949.691l1.345.4Z"/></g></svg>